# xmcd
#
# Track frame offsets:
#	150
#	20550
#	40492
#	60570
#	80625
#	99287
#	116247
#	137365
#	160667
#	178640
#	198515
#
# Disc length: 2954 seconds
#
# Revision: 2
# Processed by: cddbd v1.5.1PL0 Copyright (c) Steve Scherf et al.
# Submitted via: audiograbber 1.83.01
#
DISCID=8e0b880b
DTITLE=Chris Norman - The Album
DYEAR=1994
DGENRE=Rock
TTITLE0=As Good As It Gets
TTITLE1=Every Little Thing
TTITLE2=Red Hot Screaming Love
TTITLE3=Still In Love With You
TTITLE4=Jealous Heart
TTITLE5=Stupid Girl
TTITLE6=Ruby Lips
TTITLE7=Love Is A Burning Flame
TTITLE8=Eyes Of An Angel
TTITLE9=Rainbow Man
TTITLE10=When Love Has Gone
EXTD=
EXTT0=
EXTT1=
EXTT2=
EXTT3=
EXTT4=
EXTT5=
EXTT6=
EXTT7=
EXTT8=
EXTT9=
EXTT10=
PLAYORDER=
